<mxfile host="app.diagrams.net" modified="2023-10-23T02:05:23.183Z" agent="Mozilla/5.0 (Windows NT 10.0; Win64; x64) AppleWebKit/537.36 (KHTML, like Gecko) Chrome/118.0.0.0 Safari/537.36" etag="WRWZhfTFruj_nxfLga8B" version="22.0.6" type="github">
  <diagram name="Page-1" id="6MaaZvA3j_ClUYgT1eT6">
    <mxGraphModel dx="2074" dy="1160" grid="1" gridSize="10" guides="1" tooltips="1" connect="1" arrows="1" fold="1" page="1" pageScale="1" pageWidth="850" pageHeight="1100" math="0" shadow="0">
      <root>
        <mxCell id="0" />
        <mxCell id="1" parent="0" />
        <mxCell id="Q6l2Wtg8TuGzA8U4DUpe-1" value="" style="rounded=1;whiteSpace=wrap;html=1;" vertex="1" parent="1">
          <mxGeometry x="100" y="180" width="630" height="40" as="geometry" />
        </mxCell>
        <mxCell id="Q6l2Wtg8TuGzA8U4DUpe-2" value="" style="endArrow=none;html=1;rounded=0;entryX=0.853;entryY=0;entryDx=0;entryDy=0;entryPerimeter=0;exitX=0.848;exitY=1.05;exitDx=0;exitDy=0;exitPerimeter=0;" edge="1" parent="1" source="Q6l2Wtg8TuGzA8U4DUpe-1" target="Q6l2Wtg8TuGzA8U4DUpe-1">
          <mxGeometry width="50" height="50" relative="1" as="geometry">
            <mxPoint x="400" y="620" as="sourcePoint" />
            <mxPoint x="450" y="570" as="targetPoint" />
          </mxGeometry>
        </mxCell>
        <mxCell id="Q6l2Wtg8TuGzA8U4DUpe-3" value="" style="endArrow=none;html=1;rounded=0;entryX=0.105;entryY=0;entryDx=0;entryDy=0;entryPerimeter=0;exitX=0.107;exitY=1.017;exitDx=0;exitDy=0;exitPerimeter=0;" edge="1" parent="1" source="Q6l2Wtg8TuGzA8U4DUpe-1" target="Q6l2Wtg8TuGzA8U4DUpe-1">
          <mxGeometry width="50" height="50" relative="1" as="geometry">
            <mxPoint x="270" y="440" as="sourcePoint" />
            <mxPoint x="320" y="390" as="targetPoint" />
          </mxGeometry>
        </mxCell>
        <mxCell id="Q6l2Wtg8TuGzA8U4DUpe-4" value="" style="endArrow=none;html=1;rounded=0;entryX=0.25;entryY=0;entryDx=0;entryDy=0;exitX=0.25;exitY=1;exitDx=0;exitDy=0;" edge="1" parent="1" source="Q6l2Wtg8TuGzA8U4DUpe-1" target="Q6l2Wtg8TuGzA8U4DUpe-1">
          <mxGeometry width="50" height="50" relative="1" as="geometry">
            <mxPoint x="280" y="450" as="sourcePoint" />
            <mxPoint x="330" y="400" as="targetPoint" />
          </mxGeometry>
        </mxCell>
        <mxCell id="Q6l2Wtg8TuGzA8U4DUpe-5" value="" style="endArrow=none;html=1;rounded=0;entryX=0.404;entryY=0.05;entryDx=0;entryDy=0;entryPerimeter=0;exitX=0.404;exitY=1;exitDx=0;exitDy=0;exitPerimeter=0;" edge="1" parent="1" source="Q6l2Wtg8TuGzA8U4DUpe-1" target="Q6l2Wtg8TuGzA8U4DUpe-1">
          <mxGeometry width="50" height="50" relative="1" as="geometry">
            <mxPoint x="290" y="460" as="sourcePoint" />
            <mxPoint x="340" y="410" as="targetPoint" />
          </mxGeometry>
        </mxCell>
        <mxCell id="Q6l2Wtg8TuGzA8U4DUpe-6" value="" style="endArrow=none;html=1;rounded=0;entryX=0.532;entryY=0.033;entryDx=0;entryDy=0;entryPerimeter=0;exitX=0.531;exitY=0.95;exitDx=0;exitDy=0;exitPerimeter=0;" edge="1" parent="1" source="Q6l2Wtg8TuGzA8U4DUpe-1" target="Q6l2Wtg8TuGzA8U4DUpe-1">
          <mxGeometry width="50" height="50" relative="1" as="geometry">
            <mxPoint x="300" y="470" as="sourcePoint" />
            <mxPoint x="350" y="420" as="targetPoint" />
          </mxGeometry>
        </mxCell>
        <mxCell id="Q6l2Wtg8TuGzA8U4DUpe-7" value="" style="endArrow=none;html=1;rounded=0;entryX=0.683;entryY=0.033;entryDx=0;entryDy=0;entryPerimeter=0;exitX=0.686;exitY=0.967;exitDx=0;exitDy=0;exitPerimeter=0;" edge="1" parent="1" source="Q6l2Wtg8TuGzA8U4DUpe-1" target="Q6l2Wtg8TuGzA8U4DUpe-1">
          <mxGeometry width="50" height="50" relative="1" as="geometry">
            <mxPoint x="310" y="480" as="sourcePoint" />
            <mxPoint x="360" y="430" as="targetPoint" />
          </mxGeometry>
        </mxCell>
        <mxCell id="Q6l2Wtg8TuGzA8U4DUpe-8" value="" style="rounded=1;whiteSpace=wrap;html=1;" vertex="1" parent="1">
          <mxGeometry x="100" y="430" width="630" height="40" as="geometry" />
        </mxCell>
        <mxCell id="Q6l2Wtg8TuGzA8U4DUpe-9" value="" style="endArrow=none;html=1;rounded=0;entryX=0.853;entryY=0;entryDx=0;entryDy=0;entryPerimeter=0;exitX=0.848;exitY=1.05;exitDx=0;exitDy=0;exitPerimeter=0;" edge="1" parent="1" source="Q6l2Wtg8TuGzA8U4DUpe-8" target="Q6l2Wtg8TuGzA8U4DUpe-8">
          <mxGeometry width="50" height="50" relative="1" as="geometry">
            <mxPoint x="400" y="870" as="sourcePoint" />
            <mxPoint x="450" y="820" as="targetPoint" />
          </mxGeometry>
        </mxCell>
        <mxCell id="Q6l2Wtg8TuGzA8U4DUpe-10" value="" style="endArrow=none;html=1;rounded=0;entryX=0.068;entryY=0.033;entryDx=0;entryDy=0;entryPerimeter=0;exitX=0.066;exitY=0.983;exitDx=0;exitDy=0;exitPerimeter=0;" edge="1" parent="1" source="Q6l2Wtg8TuGzA8U4DUpe-8" target="Q6l2Wtg8TuGzA8U4DUpe-8">
          <mxGeometry width="50" height="50" relative="1" as="geometry">
            <mxPoint x="270" y="690" as="sourcePoint" />
            <mxPoint x="320" y="640" as="targetPoint" />
          </mxGeometry>
        </mxCell>
        <mxCell id="Q6l2Wtg8TuGzA8U4DUpe-11" value="" style="endArrow=none;html=1;rounded=0;entryX=0.203;entryY=0.017;entryDx=0;entryDy=0;exitX=0.21;exitY=1.083;exitDx=0;exitDy=0;entryPerimeter=0;exitPerimeter=0;" edge="1" parent="1" source="Q6l2Wtg8TuGzA8U4DUpe-8" target="Q6l2Wtg8TuGzA8U4DUpe-8">
          <mxGeometry width="50" height="50" relative="1" as="geometry">
            <mxPoint x="280" y="700" as="sourcePoint" />
            <mxPoint x="330" y="650" as="targetPoint" />
          </mxGeometry>
        </mxCell>
        <mxCell id="Q6l2Wtg8TuGzA8U4DUpe-12" value="" style="endArrow=none;html=1;rounded=0;entryX=0.404;entryY=0.05;entryDx=0;entryDy=0;entryPerimeter=0;exitX=0.404;exitY=1;exitDx=0;exitDy=0;exitPerimeter=0;" edge="1" parent="1" source="Q6l2Wtg8TuGzA8U4DUpe-8" target="Q6l2Wtg8TuGzA8U4DUpe-8">
          <mxGeometry width="50" height="50" relative="1" as="geometry">
            <mxPoint x="290" y="710" as="sourcePoint" />
            <mxPoint x="340" y="660" as="targetPoint" />
          </mxGeometry>
        </mxCell>
        <mxCell id="Q6l2Wtg8TuGzA8U4DUpe-13" value="" style="endArrow=none;html=1;rounded=0;entryX=0.532;entryY=0.033;entryDx=0;entryDy=0;entryPerimeter=0;exitX=0.531;exitY=0.95;exitDx=0;exitDy=0;exitPerimeter=0;" edge="1" parent="1" source="Q6l2Wtg8TuGzA8U4DUpe-8" target="Q6l2Wtg8TuGzA8U4DUpe-8">
          <mxGeometry width="50" height="50" relative="1" as="geometry">
            <mxPoint x="300" y="720" as="sourcePoint" />
            <mxPoint x="350" y="670" as="targetPoint" />
          </mxGeometry>
        </mxCell>
        <mxCell id="Q6l2Wtg8TuGzA8U4DUpe-14" value="" style="endArrow=none;html=1;rounded=0;entryX=0.683;entryY=0.033;entryDx=0;entryDy=0;entryPerimeter=0;exitX=0.686;exitY=0.967;exitDx=0;exitDy=0;exitPerimeter=0;" edge="1" parent="1" source="Q6l2Wtg8TuGzA8U4DUpe-8" target="Q6l2Wtg8TuGzA8U4DUpe-8">
          <mxGeometry width="50" height="50" relative="1" as="geometry">
            <mxPoint x="310" y="730" as="sourcePoint" />
            <mxPoint x="360" y="680" as="targetPoint" />
          </mxGeometry>
        </mxCell>
      </root>
    </mxGraphModel>
  </diagram>
</mxfile>
